<svg width="1107" height="1028" viewBox="0 0 1107 1028" fill="none" xmlns="http://www.w3.org/2000/svg">
<path d="M880.587 459.594C701.129 641.392 523.142 821.845 345.103 1002.25C311.019 1036.78 298.89 1036.67 264.698 1001.94C184.356 920.322 103.976 838.745 23.7646 756.999C-8.10213 724.522 -7.80755 711.861 23.9674 679.818C42.4724 661.157 60.5722 642.083 79.12 623.467C106.087 596.4 122.599 596.536 149.842 624.453C194.418 670.13 239.258 715.567 282.822 762.222C297.047 777.457 306.326 778.191 321.216 762.996C505.757 574.676 690.821 386.883 875.743 198.946C903.382 170.856 930.588 142.313 958.722 114.743C981.892 92.037 997.843 92.2006 1021.52 114.906C1043.19 135.684 1063.92 157.469 1085.17 178.697C1114.28 207.768 1114.59 223.182 1086.07 252.044C1018.1 320.817 950.054 389.507 880.587 459.594Z" fill="black"/>
<path d="M773.649 8.88856C821.531 -13.5587 861.242 11.5434 900.182 28.8091C919.361 37.3131 908.603 55.7046 896.083 68.3906C829.445 135.911 763.16 203.788 696.478 271.263C576.323 392.847 456.101 514.364 335.613 635.61C306.207 665.201 300.725 664.785 271.816 635.792C248.602 612.509 225.645 588.963 202.646 565.461C178.744 541.036 178.349 537.291 202.396 512.83C301.825 411.691 401.425 310.723 501.343 210.081C508.41 202.963 520.457 192.938 524.454 186.187C528.789 178.865 503.516 174.487 494.197 171.545C451.479 158.059 408.516 145.368 365.834 131.769C354.332 128.104 340.761 123.208 344.574 107.038C347.804 93.3429 360.506 92.0387 372.008 93.6805C515.177 114.115 648.406 86.2327 773.649 8.88856Z" fill="black"/>
</svg>
