<svg width="364" height="338" viewBox="0 0 364 338" fill="none" xmlns="http://www.w3.org/2000/svg">
<path d="M289.644 150.778C230.77 210.42 172.378 269.621 113.969 328.805C102.787 340.135 98.8082 340.099 87.5906 328.704C61.233 301.928 34.8628 275.166 8.548 248.347C-1.90647 237.693 -1.80983 233.539 8.61454 223.027C14.6854 216.905 20.6234 210.647 26.7084 204.539C35.5555 195.66 40.9726 195.704 49.9101 204.863C64.5341 219.848 79.2446 234.755 93.5366 250.061C98.2035 255.059 101.247 255.3 106.133 250.315C166.675 188.533 227.388 126.924 288.055 65.2675C297.123 56.0521 306.048 46.6881 315.278 37.643C322.879 30.194 328.113 30.2477 335.881 37.6966C342.99 44.5134 349.79 51.6602 356.762 58.6246C366.31 68.1618 366.414 73.2185 357.057 82.6874C334.759 105.25 312.435 127.785 289.644 150.778Z" fill="black"/>
<path d="M254.562 2.91606C270.27 -4.4482 283.298 3.78702 296.073 9.45135C302.365 12.2412 298.836 18.2749 294.728 22.4368C272.867 44.588 251.12 66.8564 229.244 88.9928C189.825 128.881 150.384 168.747 110.856 208.524C101.209 218.232 99.4098 218.095 89.9258 208.583C82.3099 200.945 74.7784 193.22 67.2332 185.51C59.3917 177.497 59.2622 176.268 67.1513 168.244C99.7708 135.063 132.446 101.938 165.227 68.921C167.545 66.5858 171.497 63.2968 172.808 61.0821C174.231 58.6798 165.939 57.2437 162.882 56.2784C148.868 51.8542 134.773 47.6906 120.77 43.2293C116.997 42.027 112.544 40.4207 113.795 35.1157C114.855 30.6229 119.022 30.195 122.796 30.7336C169.765 37.4376 213.473 28.2902 254.562 2.91606Z" fill="white"/>
</svg>
